<svg width="5" height="11" viewBox="0 0 5 11" fill="none" xmlns="http://www.w3.org/2000/svg">
<g id="Group">
<g id="Group_2">
<path id="Vector" fill-rule="evenodd" clip-rule="evenodd" d="M4.71699 6.45712C4.97525 6.41155 5.07437 6.55618 4.93925 6.77872L2.74536 10.3922C2.60985 10.6154 2.38976 10.6147 2.25464 10.3922L0.0607483 6.77872C-0.0747593 6.55553 0.0238131 6.41138 0.283014 6.45712L2.03238 6.76583C2.29064 6.81141 2.70842 6.81157 2.96762 6.76583L4.71699 6.45712ZM0.283014 5.02873C0.0247523 5.07431 -0.0743649 4.92967 0.0607483 4.70713L2.25464 1.09366C2.39015 0.870473 2.61024 0.871122 2.74536 1.09366L4.93925 4.70713C5.07476 4.93032 4.97619 5.07447 4.71699 5.02873L2.96762 4.72002C2.70936 4.67444 2.29158 4.67428 2.03238 4.72002L0.283014 5.02873Z" fill="#D9D9D9"/>
</g>
</g>
</svg>
