<svg width="35" height="35" viewBox="0 0 35 35" fill="none" xmlns="http://www.w3.org/2000/svg">
<circle cx="18" cy="13" r="3.5" stroke="#D9D9D9"/>
<mask id="path-2-inside-1_141_6" fill="white">
<path d="M24.4696 23C24.7625 23 25.0021 22.7622 24.9799 22.4701C24.9239 21.7323 24.7512 21.0069 24.4672 20.3212C24.1154 19.4719 23.5998 18.7003 22.9497 18.0503C22.2997 17.4002 21.5281 16.8846 20.6788 16.5328C19.8295 16.1811 18.9193 16 18 16C17.0807 16 16.1705 16.1811 15.3212 16.5328C14.4719 16.8846 13.7003 17.4002 13.0503 18.0503C12.4002 18.7003 11.8846 19.4719 11.5328 20.3212C11.2488 21.0069 11.0761 21.7323 11.0201 22.4701C10.9979 22.7622 11.2375 23 11.5304 23C11.8233 23 12.0584 22.7621 12.0845 22.4703C12.1381 21.8719 12.2822 21.2841 12.5129 20.7272C12.8114 20.0066 13.2489 19.3519 13.8004 18.8004C14.3519 18.2489 15.0066 17.8114 15.7272 17.5129C16.4477 17.2144 17.2201 17.0608 18 17.0608C18.7799 17.0608 19.5523 17.2144 20.2728 17.5129C20.9934 17.8114 21.6481 18.2489 22.1996 18.8004C22.7511 19.3519 23.1886 20.0066 23.4871 20.7272C23.7178 21.2841 23.8619 21.8719 23.9155 22.4703C23.9416 22.7621 24.1767 23 24.4696 23Z"/>
</mask>
<path d="M24.4696 23C24.7625 23 25.0021 22.7622 24.9799 22.4701C24.9239 21.7323 24.7512 21.0069 24.4672 20.3212C24.1154 19.4719 23.5998 18.7003 22.9497 18.0503C22.2997 17.4002 21.5281 16.8846 20.6788 16.5328C19.8295 16.1811 18.9193 16 18 16C17.0807 16 16.1705 16.1811 15.3212 16.5328C14.4719 16.8846 13.7003 17.4002 13.0503 18.0503C12.4002 18.7003 11.8846 19.4719 11.5328 20.3212C11.2488 21.0069 11.0761 21.7323 11.0201 22.4701C10.9979 22.7622 11.2375 23 11.5304 23C11.8233 23 12.0584 22.7621 12.0845 22.4703C12.1381 21.8719 12.2822 21.2841 12.5129 20.7272C12.8114 20.0066 13.2489 19.3519 13.8004 18.8004C14.3519 18.2489 15.0066 17.8114 15.7272 17.5129C16.4477 17.2144 17.2201 17.0608 18 17.0608C18.7799 17.0608 19.5523 17.2144 20.2728 17.5129C20.9934 17.8114 21.6481 18.2489 22.1996 18.8004C22.7511 19.3519 23.1886 20.0066 23.4871 20.7272C23.7178 21.2841 23.8619 21.8719 23.9155 22.4703C23.9416 22.7621 24.1767 23 24.4696 23Z" stroke="#D9D9D9" stroke-width="2" mask="url(#path-2-inside-1_141_6)"/>
<circle cx="17.5" cy="17.5" r="17" stroke="#D9D9D9" stroke-dasharray="4 4"/>
<circle cx="26.5" cy="25.5" r="8" fill="#D9D9D9" stroke="white" stroke-linecap="round"/>
<rect x="22" y="25" width="9" height="1" rx="0.5" fill="white"/>
<rect x="27" y="21" width="9" height="1" rx="0.5" transform="rotate(90 27 21)" fill="white"/>
</svg>
