<svg width="22" height="18" viewBox="0 0 22 18" fill="none" xmlns="http://www.w3.org/2000/svg">
<g id="Group">
<path id="Vector" fill-rule="evenodd" clip-rule="evenodd" d="M6.65885 9.89358C7.47214 9.526 8.86259 8.55453 9.67588 8.00315C11.0139 7.1367 15.9461 3.90722 17.1266 3.22456C20.1699 1.51792 11.8272 8.50201 9.88576 10.4712C9.41353 10.9701 8.9413 11.2851 8.62648 11.6265C8.31166 12.0203 8.20672 14.2258 8.15425 14.8034L6.65885 9.89358ZM21.5604 1.01906C21.4554 1.6492 20.406 6.32277 20.1961 7.39926C19.7502 9.526 19.3042 11.6002 18.8582 13.727C18.2285 16.8252 18.3072 19.0044 15.9723 17.3503C14.8704 16.5626 12.4568 14.6984 11.5123 14.1208C10.4629 15.0398 8.04931 18.1905 7.3672 16.1425C6.9999 15.0923 5.84556 11.1014 5.4258 10.445L1.20195 9.1059C-1.65767 8.23945 1.33313 7.18922 2.48747 6.76912L20.2749 0.126357C21.1668 -0.214971 21.5604 0.152613 21.5604 1.01906Z" fill="#B7B7B7"/>
</g>
</svg>
