<svg width="11" height="11" viewBox="0 0 11 11" fill="none" xmlns="http://www.w3.org/2000/svg">
<path d="M10.5001 1.00011C10.5001 0.723969 10.2763 0.500111 10.0001 0.500111L5.50013 0.500111C5.22399 0.500111 5.00013 0.723968 5.00013 1.00011C5.00013 1.27625 5.22399 1.50011 5.50013 1.50011H9.50013L9.50013 5.50011C9.50013 5.77625 9.72399 6.00011 10.0001 6.00011C10.2763 6.00011 10.5001 5.77625 10.5001 5.50011L10.5001 1.00011ZM6.71732 4.99003L10.3537 1.35366L9.64658 0.646558L6.01022 4.28292L6.71732 4.99003Z" fill="#625F5F"/>
<path d="M0.499867 10.0004C0.499866 10.2765 0.723724 10.5004 0.999867 10.5004L5.49987 10.5004C5.77601 10.5004 5.99987 10.2765 5.99987 10.0004C5.99987 9.72424 5.77601 9.50038 5.49987 9.50038H1.49987L1.49987 5.50038C1.49987 5.22423 1.27601 5.00038 0.999867 5.00038C0.723724 5.00038 0.499867 5.22423 0.499867 5.50038L0.499867 10.0004ZM4.28268 6.01046L0.646313 9.64682L1.35342 10.3539L4.98978 6.71757L4.28268 6.01046Z" fill="#625F5F"/>
</svg>
