<svg width="15" height="12" viewBox="0 0 15 12" fill="none" xmlns="http://www.w3.org/2000/svg">
<g id="Group">
<path id="Vector" d="M7.86549 0.400225C7.79074 0.401828 7.72101 0.426592 7.65397 0.472586L0.885368 5.81622C0.72964 5.94128 0.707544 6.17208 0.824138 6.32275C0.939057 6.47127 1.18349 6.49503 1.33067 6.37841L7.87662 1.2129L14.4226 6.37841C14.5697 6.49503 14.8075 6.47036 14.9235 6.32275C15.0387 6.17625 15.0264 5.93287 14.8679 5.81622L8.09927 0.472586C8.01999 0.420356 7.94023 0.398666 7.86549 0.400225ZM3.42359 5.1928L2.71111 5.75499V11.4437C2.71112 11.5382 2.74865 11.6288 2.81546 11.6956C2.88227 11.7624 2.97287 11.8 3.06735 11.8H6.45165C6.54613 11.8 6.63674 11.7624 6.70354 11.6956C6.77035 11.6288 6.80788 11.5382 6.80789 11.4437V9.30628C6.80789 8.70804 7.27838 8.23755 7.87662 8.23755C8.47486 8.23755 8.94535 8.70804 8.94535 9.30628V11.4437C8.94536 11.5382 8.98289 11.6288 9.0497 11.6956C9.1165 11.7624 9.20711 11.8 9.30159 11.8H12.6859C12.7804 11.8 12.871 11.7624 12.9378 11.6956C13.0046 11.6288 13.0421 11.5382 13.0421 11.4437V5.75499L12.3296 5.1928V11.0875H9.65783V9.30628C9.65783 8.32565 8.85725 7.52507 7.87662 7.52507C6.89599 7.52507 6.09541 8.32565 6.09541 9.30628V11.0875H3.42359V5.1928Z" fill="black"/>
</g>
</svg>
