<svg width="10" height="12" viewBox="0 0 10 12" fill="none" xmlns="http://www.w3.org/2000/svg">
<path id="Vector" d="M9.75 8.88387C9.13461 8.16774 8.84615 7.25806 8.84615 6.52258L8.80769 4.72258C8.80769 3.07742 7.71154 1.56774 6.15385 1.06452C6.11538 0.445161 5.63462 0 5 0C4.38462 0 3.90385 0.445161 3.84615 1.06452C2.28846 1.5871 1.19231 3.07742 1.19231 4.72258L1.15385 6.52258C1.15385 7.27742 0.865385 8.16774 0.25 8.88387C0.134615 9.01935 0 9.2129 0 9.48387C0 10.1032 0.269231 10.4516 0.961538 10.4516H3.84615V10.8387C3.84615 11.4774 4.36538 12 5 12C5.63462 12 6.15385 11.4774 6.15385 10.8387V10.4516H9.03846C9.73077 10.4516 10 10.1032 10 9.48387C10 9.2129 9.86538 9.01935 9.75 8.88387ZM5.38462 10.8387C5.38462 11.071 5.17308 11.2258 5 11.2258C4.82692 11.2258 4.61538 11.071 4.61538 10.8387V10.4516H5.38462V10.8387ZM9.03846 9.67742H0.961538C0.711538 9.67742 0.730769 9.46452 0.846154 9.3871C1.71154 8.55484 1.92308 7.23871 1.92308 6.54193L1.96154 4.74194C1.96154 3.36774 2.98077 2.07097 4.32692 1.74194C4.5 1.70323 4.61538 1.54839 4.61538 1.37419V1.18065C4.61538 0.948387 4.76923 0.793548 5 0.793548C5.23077 0.793548 5.38462 0.948387 5.38462 1.18065V1.37419C5.38462 1.54839 5.5 1.70323 5.67308 1.74194C7.01923 2.07097 8.03846 3.36774 8.03846 4.74194L8.07692 6.54193C8.07692 7.23871 8.30769 8.55484 9.15385 9.3871C9.26923 9.46452 9.28846 9.67742 9.03846 9.67742Z" fill="black"/>
</svg>
