<svg width="12" height="12" viewBox="0 0 12 12" fill="none" xmlns="http://www.w3.org/2000/svg">
<g id="Group">
<g id="Group_2">
<g id="Group_3">
<path id="Vector" d="M0.00149503 4.73525C0.103839 7.3706 2.04837 9.31513 4.70931 9.41748C7.34466 9.51982 9.31478 7.1915 9.41712 4.70966C9.51947 2.07431 7.19115 0.10419 4.70931 0.00184654C2.07396 -0.0749113 0.103839 2.25341 0.00149503 4.73525C-0.0240909 5.554 1.25521 5.554 1.28079 4.73525C1.45989 0.334464 7.93314 0.334464 8.11224 4.73525C8.189 6.65419 6.50033 8.08701 4.68372 8.16376C2.76478 8.24052 1.33196 6.55185 1.25521 4.73525C1.22962 3.9165 -0.0496769 3.89091 0.00149503 4.73525Z" fill="#BCBCBC"/>
</g>
</g>
<g id="Group_4">
<path id="Vector_2" d="M7.41328 7.9217L10.4889 10.9973L10.7241 10.7621L7.64847 7.68651L7.41328 7.9217Z" fill="#BCBCBC"/>
<g id="Group_5">
<path id="Vector_3" d="M7.21672 8.13813C8.24016 9.16157 9.2636 10.185 10.287 11.2084C10.287 10.9014 10.287 10.5944 10.287 10.3129C10.2103 10.3897 10.1335 10.4665 10.0568 10.5432C10.3638 10.5432 10.6708 10.5432 10.9523 10.5432C9.92883 9.51977 8.9054 8.49634 7.88196 7.4729C7.88196 7.77993 7.88196 8.08696 7.88196 8.36841C7.95872 8.29165 8.03547 8.21489 8.11223 8.13813C8.70071 7.54966 7.77962 6.65415 7.21672 7.24263C7.13997 7.31938 7.06321 7.39614 6.98645 7.4729C6.73059 7.72876 6.73059 8.13813 6.98645 8.36841C8.00989 9.39185 9.03333 10.4153 10.0568 11.4387C10.3126 11.6946 10.722 11.6946 10.9523 11.4387C11.029 11.362 11.1058 11.2852 11.1825 11.2084C11.4384 10.9526 11.4384 10.5432 11.1825 10.3129C10.1591 9.2895 9.13567 8.26606 8.11223 7.24263C7.52376 6.65415 6.62825 7.57524 7.21672 8.13813Z" fill="#BCBCBC"/>
</g>
</g>
</g>
</svg>
