<svg width="15" height="17" viewBox="0 0 15 17" fill="none" xmlns="http://www.w3.org/2000/svg">
<path d="M7.16375 0.000139068C7.13479 0.000766727 7.10591 0.00349811 7.07735 0.00831163H5.37983C5.30062 0.0071914 5.22198 0.0218253 5.14848 0.0513628C5.07497 0.0809003 5.00807 0.124752 4.95166 0.180371C4.89525 0.235989 4.85045 0.302264 4.81988 0.375344C4.78931 0.448425 4.77356 0.526853 4.77356 0.606071C4.77356 0.685289 4.78931 0.763717 4.81988 0.836798C4.85045 0.909878 4.89525 0.976153 4.95166 1.03177C5.00807 1.08739 5.07497 1.13124 5.14848 1.16078C5.22198 1.19032 5.30062 1.20495 5.37983 1.20383H6.57535V2.42972C2.90009 2.73534 0 5.81979 0 9.57234C0 13.5269 3.21858 16.7455 7.17311 16.7455C11.1276 16.7455 14.3462 13.5269 14.3462 9.57234C14.3462 7.80991 13.704 6.19584 12.6452 4.94556L13.5126 4.0781L13.9364 4.50073C13.9916 4.55798 14.0575 4.60366 14.1305 4.63511C14.2035 4.66656 14.282 4.68315 14.3614 4.6839C14.4409 4.68466 14.5197 4.66956 14.5933 4.6395C14.6668 4.60944 14.7337 4.56502 14.7898 4.50883C14.846 4.45264 14.8905 4.38582 14.9205 4.31226C14.9506 4.23871 14.9657 4.15989 14.9649 4.08044C14.9642 4.00098 14.9476 3.92247 14.9161 3.84949C14.8847 3.77652 14.839 3.71055 14.7817 3.65544L14.0135 2.88839C13.9733 2.8302 13.9231 2.7796 13.8652 2.73895L13.09 1.96372C13.0343 1.90646 12.9677 1.86094 12.8941 1.82986C12.8205 1.79878 12.7414 1.78276 12.6615 1.78276C12.5426 1.78279 12.4264 1.81828 12.3278 1.8847C12.2291 1.95112 12.1525 2.04545 12.1078 2.15562C12.063 2.2658 12.0522 2.38682 12.0766 2.5032C12.101 2.61959 12.1595 2.72606 12.2447 2.80899L12.6674 3.23279L11.7999 4.10026C10.6928 3.16268 9.29928 2.55667 7.77087 2.42958V1.2037H8.96638C9.0456 1.20482 9.12424 1.19019 9.19774 1.16065C9.27125 1.13111 9.33815 1.08726 9.39456 1.03164C9.45097 0.976022 9.49576 0.909747 9.52634 0.836666C9.55691 0.763586 9.57266 0.685158 9.57266 0.60594C9.57266 0.526721 9.55691 0.448293 9.52634 0.375213C9.49576 0.302132 9.45097 0.235857 9.39456 0.180239C9.33815 0.124621 9.27125 0.0807688 9.19774 0.0512313C9.12424 0.0216937 9.0456 0.00705993 8.96638 0.00818016H7.26534C7.23178 0.00257017 7.19777 -3.2473e-05 7.16375 0.000139068ZM7.10304 3.59835C7.15112 3.60422 7.19973 3.60422 7.24781 3.59835C8.82942 3.61783 10.2586 4.24728 11.3154 5.26323C11.3593 5.32847 11.4156 5.38441 11.4812 5.42785C12.5143 6.5016 13.1507 7.95996 13.1507 9.57247C13.1507 12.8809 10.4815 15.5501 7.17311 15.5501C3.86469 15.5501 1.19552 12.8809 1.19552 9.57247C1.19552 6.28773 3.82749 3.63613 7.10304 3.59835Z" fill="white"/>
<path fill-rule="evenodd" clip-rule="evenodd" d="M7.16372 5.97749C7.00539 5.97996 6.8545 6.04516 6.74418 6.15876C6.63386 6.27237 6.57313 6.4251 6.5753 6.58344V8.53548C6.39388 8.64059 6.24317 8.79169 6.13826 8.97364C6.03335 9.1556 5.97793 9.36202 5.97754 9.57224C5.97748 9.72982 6.00835 9.88588 6.06841 10.0315C6.12846 10.1771 6.21651 10.3094 6.32753 10.4209C6.43855 10.5323 6.57036 10.6207 6.71544 10.681C6.86052 10.7414 7.01602 10.7724 7.17306 10.7724C7.3301 10.7724 7.48559 10.7414 7.63067 10.681C7.77575 10.6207 7.90757 10.5323 8.01859 10.4209C8.12961 10.3094 8.21766 10.1771 8.27771 10.0315C8.33776 9.88588 8.36864 9.72982 8.36858 9.57224C8.36839 9.36183 8.31306 9.15517 8.20814 8.973C8.10322 8.79083 7.9524 8.63955 7.77082 8.53434V6.58344C7.77191 6.50346 7.75695 6.42408 7.72682 6.35C7.69668 6.27591 7.65199 6.20862 7.59538 6.15212C7.53877 6.09562 7.4714 6.05105 7.39726 6.02105C7.32311 5.99106 7.24369 5.97624 7.16372 5.97749Z" fill="white"/>
</svg>
